<?xml version="1.0" encoding="UTF-8" standalone="no"?>
<!-- Created with Inkscape (http://www.inkscape.org/) -->

<svg
   width="210mm"
   height="297mm"
   viewBox="0 0 210 297"
   version="1.1"
   id="svg5"
   inkscape:version="1.1 (c68e22c387, 2021-05-23)"
   sodipodi:docname="logo.svg"
   xmlns:inkscape="http://www.inkscape.org/namespaces/inkscape"
   xmlns:sodipodi="http://sodipodi.sourceforge.net/DTD/sodipodi-0.dtd"
   xmlns:xlink="http://www.w3.org/1999/xlink"
   xmlns="http://www.w3.org/2000/svg"
   xmlns:svg="http://www.w3.org/2000/svg">
  <sodipodi:namedview
     id="namedview7"
     pagecolor="#ffffff"
     bordercolor="#111111"
     borderopacity="1"
     inkscape:pageshadow="0"
     inkscape:pageopacity="0"
     inkscape:pagecheckerboard="1"
     inkscape:document-units="mm"
     showgrid="false"
     inkscape:zoom="0.33317901"
     inkscape:cx="438.20287"
     inkscape:cy="499.73136"
     inkscape:window-width="1920"
     inkscape:window-height="1017"
     inkscape:window-x="-8"
     inkscape:window-y="-8"
     inkscape:window-maximized="1"
     inkscape:current-layer="layer2" />
  <defs
     id="defs2">
    <linearGradient
       inkscape:collect="always"
       id="linearGradient47440">
      <stop
         style="stop-color:#ccdbec;stop-opacity:1;"
         offset="0"
         id="stop47436" />
      <stop
         style="stop-color:#ccdbec;stop-opacity:0;"
         offset="1"
         id="stop47438" />
    </linearGradient>
    <linearGradient
       inkscape:collect="always"
       id="linearGradient29820">
      <stop
         style="stop-color:#dbe2e3;stop-opacity:1"
         offset="0"
         id="stop29816" />
      <stop
         style="stop-color:#aaccff;stop-opacity:1"
         offset="1"
         id="stop29818" />
    </linearGradient>
    <linearGradient
       inkscape:collect="always"
       id="linearGradient29093">
      <stop
         style="stop-color:#93ac9d;stop-opacity:1"
         offset="0"
         id="stop29089" />
      <stop
         style="stop-color:#afe9c6;stop-opacity:1"
         offset="1"
         id="stop29091" />
    </linearGradient>
    <rect
       x="-27.012506"
       y="471.21816"
       width="391.68133"
       height="105.04863"
       id="rect8621" />
    <rect
       x="229.6063"
       y="339.15702"
       width="538.74942"
       height="262.62158"
       id="rect3290" />
    <linearGradient
       inkscape:collect="always"
       xlink:href="#linearGradient29093"
       id="linearGradient29095"
       x1="372.6362"
       y1="424.37292"
       x2="372.6362"
       y2="438.14041"
       gradientUnits="userSpaceOnUse" />
    <linearGradient
       inkscape:collect="always"
       xlink:href="#linearGradient29820"
       id="linearGradient29822"
       x1="371.07559"
       y1="352.95502"
       x2="371.07559"
       y2="368.92728"
       gradientUnits="userSpaceOnUse" />
    <linearGradient
       inkscape:collect="always"
       xlink:href="#linearGradient47440"
       id="linearGradient47442"
       x1="286.72385"
       y1="90.525597"
       x2="201.82384"
       y2="118.72805"
       gradientUnits="userSpaceOnUse" />
  </defs>
  <g
     inkscape:groupmode="layer"
     id="layer2"
     inkscape:label="Layer 2"
     style="display:inline">
    <rect
       style="font-size:40px;line-height:1.25;white-space:pre;shape-inside:url(#rect3290);display:inline;fill:#220b28;fill-opacity:1;stroke:none;stroke-width:0.113336"
       id="rect18773"
       width="648.79413"
       height="356.51099"
       x="-219.17648"
       y="-62.909904" />
  </g>
  <g
     inkscape:label="Layer 1"
     inkscape:groupmode="layer"
     id="layer1"
     style="display:inline">
    <g
       aria-label="CYWILIZACJA"
       transform="matrix(1.1186674,0,0,1.1186674,-326.36752,-308.08192)"
       id="text3288"
       style="font-size:40px;line-height:1.25;white-space:pre;shape-inside:url(#rect3290)">
      <path
         id="path6400"
         style="font-family:'Black Ops One';-inkscape-font-specification:'Black Ops One, Normal';fill:#000000;stroke-width:0.999999;fill-opacity:1"
         d="m 414.74023,347.68359 c -0.29065,0.057 -0.17233,0.95177 -0.5055,1.34672 -3.04509,8.13742 -6.08866,16.27541 -9.13317,24.41305 0,-1.8418 0,-3.68359 0,-5.52539 -3.68489,0 -7.36979,0 -11.05468,0 3.80214,-4.64383 7.60382,-9.28804 11.40624,-13.93164 0,-2.10091 10e-6,-4.20182 0,-6.30274 -8.05208,0 -16.10416,0 -24.15624,0 0,2.51823 -10e-6,5.03646 0,7.55469 3.60872,0 7.21744,0 10.82617,0 -3.78418,4.7112 -7.57099,9.4203 -11.35352,14.13281 0,2.04037 0,4.08073 0,6.1211 11.31836,0 22.63672,0 33.95508,0 0.32411,-0.93673 0.60552,-1.92911 0.95312,-2.83203 2.83138,0 5.66276,0 8.49415,0 0.36466,0.94398 0.72865,1.88821 1.09374,2.83203 3.59115,0 7.1823,0 10.77344,0 -3.69436,-9.26991 -7.38945,-18.53953 -11.08594,-27.8086 -3.25781,0 -6.51562,0 -9.77343,0 -0.26152,-0.67362 -0.15517,-0.77599 -0.43946,0 z m 84.16016,0 c -0.29065,0.057 -0.17233,0.95177 -0.50551,1.34672 -3.30011,8.82043 -6.60019,17.64088 -9.89879,26.46188 3.46289,0 6.92578,0 10.38868,0 0.32411,-0.93673 0.60551,-1.92911 0.95312,-2.83203 2.83138,0 5.66276,0 8.49414,0 0.36466,0.94398 0.72866,1.88821 1.09375,2.83203 3.59115,0 7.18229,0 10.77344,0 -3.69436,-9.26991 -7.38945,-18.53953 -11.08594,-27.8086 -3.25781,0 -6.51562,0 -9.77344,0 -0.26151,-0.67362 -0.15517,-0.77599 -0.43945,0 z m -262.73437,0.13868 c -1.87174,1.86132 -3.74122,3.72492 -5.61133,5.58789 0,5.45117 0,10.90234 0,16.35351 1.91642,1.90975 3.83195,3.8204 5.75,5.72852 4.92838,0 9.85677,0 14.78515,0 1.91016,-1.91016 3.82032,-3.82031 5.73047,-5.73047 0,-1.70833 0,-3.41667 0,-5.125 -3.50781,0 -7.01562,0 -10.52343,0 0,1.26302 -10e-6,2.52604 0,3.78906 -1.73959,0 -3.47917,0 -5.21876,0 0,-4.55859 10e-6,-9.11719 0,-13.67578 1.73959,0 3.47917,0 5.21876,0 0,1.73828 0,3.47656 0,5.21484 3.50781,0 7.01562,0 10.52343,0 0,-2.18359 0,-4.36718 0,-6.55078 -1.91015,-1.91015 -3.82031,-3.82031 -5.73047,-5.73047 -4.92838,0 -9.85677,0 -14.78515,0 l -0.0707,0.0707 z m 19.86914,0.54492 c 3.01028,6.0541 6.02085,12.10806 9.03125,18.16211 0,9.18294 0,18.36588 0,27.54882 3.51353,3.89395 7.02982,7.7854 10.54297,11.67969 0,-13.02213 -10e-6,-26.04427 0,-39.0664 -0.0793,-0.52745 0.48438,-1.04935 0.65129,-1.57454 2.14748,-4.23036 4.29497,-8.46072 6.44245,-12.69109 2.30093,7.68876 4.60072,15.37786 6.90235,23.06641 3.08594,0 6.17187,0 9.25781,0 0.90684,-3.3211 1.80959,-6.64332 2.71484,-9.96485 0.91156,3.32159 1.82234,6.64339 2.73438,9.96485 3.16276,0 6.32552,0 9.48828,0 0.15798,0.36892 0.29877,1.90099 0.47772,0.85141 2.46469,-8.60563 4.92607,-17.21221 7.38947,-25.81821 0,1.51888 0,3.03776 0,4.55664 0.86588,0 1.73177,0 2.59765,0 0,4.33073 10e-6,8.66146 0,12.99219 -0.86588,0 -1.73177,0 -2.59765,0 0,2.47266 0,4.94531 0,7.41797 5.23958,0 10.47917,0 15.71875,0 0,-2.47266 0,-4.94531 0,-7.41797 -0.86589,0 -1.73177,0 -2.59766,0 0,-4.33073 0,-8.66146 0,-12.99219 0.86589,0 1.73177,0 2.59766,0 0,-2.46614 0,-4.93229 0,-7.39844 -8.25651,0 -16.51302,0 -24.76953,0 -0.86315,3.46168 -1.72232,6.92458 -2.58399,10.38672 -0.88759,-3.46218 -1.7734,-6.92482 -2.66211,-10.38672 -3.5625,0 -7.125,0 -10.6875,0 0.17445,0.86742 0.70513,1.72931 0.30911,2.60622 -0.69548,2.90731 -1.39097,5.81461 -2.08645,8.72191 -1.01048,-3.77603 -2.02045,-7.55219 -3.03125,-11.32813 -5.72396,0 -11.44792,0 -17.17188,0 -1.46682,2.73207 -2.92801,5.46768 -4.39257,8.20118 -1.34039,-2.73378 -2.68164,-5.46714 -4.02149,-8.20118 -3.53125,0 -7.0625,0 -10.59375,0 0.11328,0.22787 0.22657,0.45573 0.33985,0.6836 z m 83.64062,-0.21094 c 0,9.11198 0,18.22396 0,27.33594 8,0 16,0 24,0 0,-3.44922 0,-6.89844 0,-10.34766 -3.24088,0 -6.48177,0 -9.72266,0 0,1.09375 0,2.1875 0,3.28125 -1.2513,0 -2.5026,0 -3.7539,0 0,-6.91406 0,-13.82812 0,-20.74219 -3.50781,0 -7.01563,0 -10.52344,0 0,0.15756 0,0.31511 0,0.47266 z m 24.35547,0 c 0,2.30859 0,4.61719 0,6.92578 0.86589,0 1.73177,0 2.59766,0 0,4.33073 0,8.66146 0,12.99219 -0.86589,0 -1.73177,0 -2.59766,0 0,2.47266 0,4.94531 0,7.41797 5.23958,0 10.47917,0 15.71875,0 0,-2.47266 0,-4.94531 0,-7.41797 -0.86589,0 -1.73177,0 -2.59766,0 0,-4.33073 0,-8.66146 0,-12.99219 0.86589,0 1.73177,0 2.59766,0 0,-2.46614 0,-4.93229 0,-7.39844 -5.23958,0 -10.47917,0 -15.71875,0 0,0.15756 0,0.31511 0,0.47266 z m 77.34961,-0.33398 c -1.87173,1.86132 -3.74122,3.72492 -5.61133,5.58789 0,5.45117 0,10.90234 0,16.35351 1.91642,1.90975 3.83196,3.8204 5.75,5.72852 4.92839,0 9.85677,0 14.78516,0 1.91015,-1.91016 3.82031,-3.82031 5.73047,-5.73047 0,-1.70833 0,-3.41667 0,-5.125 -3.50782,0 -7.01563,0 -10.52344,0 0,1.26302 0,2.52604 0,3.78906 -1.73958,0 -3.47917,0 -5.21875,0 0,-4.55859 0,-9.11719 0,-13.67578 1.73958,0 3.47917,0 5.21875,0 0,1.73828 0,3.47656 0,5.21484 3.50781,0 7.01562,0 10.52344,0 0,-2.18359 0,-4.36718 0,-6.55078 -1.91016,-1.91015 -3.82032,-3.82031 -5.73047,-5.73047 -4.92839,0 -9.85677,0 -14.78516,0 l -0.0707,0.0707 z m 24.7793,0.33398 c 0,2.35417 0,4.70833 0,7.0625 3.97135,0 7.9427,0 11.91406,0 0,4.40234 0,8.80469 0,13.20703 -1.40104,0 -2.80208,0 -4.20313,0 0,-1.89453 0,-3.78906 0,-5.68359 -3.61849,0 -7.23698,0 -10.85547,0 0,2.34049 10e-6,4.68099 0,7.02148 1.91642,1.90975 3.83196,3.8204 5.75,5.72852 4.70053,0 9.40105,0 14.10157,0 1.91015,-1.91016 3.82031,-3.82032 5.73047,-5.73047 0,-7.35938 0,-14.71875 0,-22.07813 -7.47917,0 -14.95834,0 -22.4375,0 0,0.15756 0,0.31511 0,0.47266 z m -168.66797,0.0586 c 0.004,0.0104 -0.006,-0.002 0,0 z m 123.95703,17.41797 c -1.16211,0 -2.32422,0 -3.48633,0 0.53385,-1.62565 1.06771,-3.2513 1.60156,-4.87695 0.62826,1.62565 1.25651,3.2513 1.88477,4.87695 z m 84.16016,0 c -1.16211,0 -2.32422,0 -3.48633,0 0.53385,-1.62565 1.06771,-3.2513 1.60156,-4.87695 0.62825,1.62565 1.25651,3.2513 1.88477,4.87695 z" />
      <g
         id="g19432"
         style="fill:url(#linearGradient29822);fill-opacity:1">
        <path
           d="m 240.13281,374.54687 h -3.4375 L 231.5,369.37109 v -15.5664 l 5.19531,-5.17578 h 3.4375 z M 241.5,353.80469 v -5.17578 h 9.19922 l 5.17578,5.17578 v 5.21484 h -8.63281 v -5.21484 z m 0,20.74218 v -5.17578 h 5.74219 v -3.78906 h 8.63281 v 3.78906 l -5.17578,5.17578 z"
           style="font-family:'Black Ops One';-inkscape-font-specification:'Black Ops One, Normal';fill:url(#linearGradient29822);fill-opacity:1.0"
           id="path19410" />
        <path
           d="m 266.01172,366.30469 -8.78906,-17.67578 h 8.47656 l 8.96484,18.28125 v 36.38678 l -8.65234,-9.58336 z m 9.19922,-1.21094 -4.19922,-8.51563 4.25781,-7.94921 h 8.30078 z"
           style="font-family:'Black Ops One';-inkscape-font-specification:'Black Ops One, Normal';fill:url(#linearGradient29822);fill-opacity:1.0"
           id="path19412"
           sodipodi:nodetypes="cccccccccccc" />
        <path
           d="m 294.95703,362.86719 2.59766,-10.87891 3.3789,12.30469 -2.79297,10.2539 h -7.83203 l -7.7539,-25.91796 h 8.59375 z m 18.32031,11.67968 h -8.24218 l -7.10938,-25.91796 h 8.71094 z m 0.0781,-25.91796 h 7.87109 l -7.03125,24.57031 -3.51562,-13.8086 z"
           style="font-family:'Black Ops One';-inkscape-font-specification:'Black Ops One, Normal';fill:url(#linearGradient29822);fill-opacity:1.0"
           id="path19414" />
        <path
           d="m 322.61328,369.01953 h 2.59766 v -14.88281 h -2.59766 v -5.50781 h 13.82813 v 5.50781 h -2.59766 v 14.88281 h 2.59766 v 5.52734 h -13.82813 z"
           style="font-family:'Black Ops One';-inkscape-font-specification:'Black Ops One, Normal';fill:url(#linearGradient29822);fill-opacity:1.0"
           id="path19416" />
        <path
           d="m 340.62109,374.54687 v -25.91796 h 8.63282 v 25.91796 z m 10,0 v -5.17578 h 4.27735 v -3.28125 h 7.83203 v 8.45703 z"
           style="font-family:'Black Ops One';-inkscape-font-specification:'Black Ops One, Normal';fill:url(#linearGradient29822);fill-opacity:1.0"
           id="path19418" />
        <path
           d="m 364.97656,369.01953 h 2.59766 v -14.88281 h -2.59766 v -5.50781 h 13.82813 v 5.50781 h -2.59766 v 14.88281 h 2.59766 v 5.52734 h -13.82813 z"
           style="font-family:'Black Ops One';-inkscape-font-specification:'Black Ops One, Normal';fill:url(#linearGradient29822);fill-opacity:1.0"
           id="path19420" />
        <path
           d="m 381.71484,369.70312 16.9336,-21.07421 h 5.85937 v 5.01953 l -17.10937,20.89843 h -5.6836 z m 22.44141,4.84375 h -15.01953 l 4.92187,-5.68359 h 10.09766 z m -21.91406,-25.91796 h 14.70703 l -4.90235,5.66406 h -9.80468 z"
           style="font-family:'Black Ops One';-inkscape-font-specification:'Black Ops One, Normal';fill:url(#linearGradient29822);fill-opacity:1.0"
           id="path19422" />
        <path
           d="m 424.82031,371.71484 h -8.47656 l 1.79687,-5.13672 h 4.6875 l -6.93359,-17.94921 h 8.41797 l 10.33203,25.91796 h -8.73047 z m -10.78125,2.83203 h -8.33984 l 9.25781,-24.74609 3.82813,10.29297 z"
           style="font-family:'Black Ops One';-inkscape-font-specification:'Black Ops One, Normal';fill:url(#linearGradient29822);fill-opacity:1.0"
           id="path19424" />
        <path
           d="m 445.34766,374.54687 h -3.4375 l -5.19532,-5.17578 v -15.5664 l 5.19532,-5.17578 h 3.4375 z m 1.36718,-20.74218 v -5.17578 h 9.19922 l 5.17578,5.17578 v 5.21484 h -8.63281 v -5.21484 z m 0,20.74218 v -5.17578 h 5.74219 v -3.78906 h 8.63281 v 3.78906 l -5.17578,5.17578 z"
           style="font-family:'Black Ops One';-inkscape-font-specification:'Black Ops One, Normal';fill:url(#linearGradient29822);fill-opacity:1.0"
           id="path19426" />
        <path
           d="m 467.10547,348.62891 h 20.54687 v 20.74218 l -5.17578,5.17578 h -3.45703 v -20.27343 h -11.91406 z m 5.82031,20.74218 h 4.72656 v 5.17578 h -8.49609 l -5.19531,-5.17578 v -5.68359 h 8.96484 z"
           style="font-family:'Black Ops One';-inkscape-font-specification:'Black Ops One, Normal';fill:url(#linearGradient29822);fill-opacity:1.0"
           id="path19428" />
        <path
           d="m 508.98047,371.71484 h -8.47656 l 1.79687,-5.13672 h 4.6875 l -6.93359,-17.94921 h 8.41797 l 10.33203,25.91796 h -8.73047 z m -10.78125,2.83203 h -8.33985 l 9.25782,-24.74609 3.82812,10.29297 z"
           style="font-family:'Black Ops One';-inkscape-font-specification:'Black Ops One, Normal';fill:url(#linearGradient29822);fill-opacity:1.0"
           id="path19430" />
      </g>
      <g
         id="g13768"
         transform="translate(-6.7438433,-39.753182)"
         style="fill-opacity:1;fill:url(#linearGradient29095)">
        <path
           d="m 298.32473,441.06634 v -8.37773 q 0,-1.58246 1.086,-2.66847 1.086,-1.086 2.66846,-1.086 h 15.0489 q 0.49645,0 0.83777,-0.34131 0.37234,-0.37235 0.37234,-0.86881 v -5.24384 q 0,-0.49645 -0.37234,-0.83777 -0.34132,-0.37234 -0.83777,-0.37234 h -15.0489 q -0.49645,0 -0.8688,0.37234 -0.34131,0.34132 -0.34131,0.83777 v 0.86881 h -2.54435 v -0.86881 q 0,-1.58246 1.086,-2.66846 1.086,-1.11703 2.66846,-1.11703 h 15.0489 q 1.55143,0 2.63743,1.11703 1.11703,1.086 1.11703,2.66846 v 5.24384 q 0,1.55144 -1.11703,2.66847 -1.086,1.086 -2.63743,1.086 h -15.0489 q -0.49645,0 -0.8688,0.37234 -0.34131,0.34132 -0.34131,0.83778 v 4.62326 q 0,0.49646 0.34131,0.86881 0.37235,0.34131 0.8688,0.34131 h 18.80336 v 2.54435 z"
           style="font-family:Orbitron;-inkscape-font-specification:'Orbitron, Normal';stroke-width:0.775716;fill-opacity:1.0;fill:url(#linearGradient29095)"
           id="path13733" />
        <path
           d="m 356.37719,441.06634 q -1.58246,0 -2.66846,-1.086 -1.086,-1.11703 -1.086,-2.66847 v -14.80066 q 0,-1.58246 1.086,-2.66846 1.086,-1.11703 2.66846,-1.11703 h 15.0489 q 1.55143,0 2.63743,1.11703 1.11703,1.086 1.11703,2.66846 v 14.80066 q 0,1.55144 -1.11703,2.66847 -1.086,1.086 -2.63743,1.086 z m -0.89983,-2.54435 h 15.94873 q 0.49645,0 0.83777,-0.34131 0.37234,-0.37235 0.37234,-0.86881 v -12.93894 z m -0.31028,-3.07183 17.12781,-14.14906 h -15.9177 q -0.49645,0 -0.8688,0.37234 -0.34131,0.34131 -0.34131,0.83777 z"
           style="font-family:Orbitron;-inkscape-font-specification:'Orbitron, Normal';stroke-width:0.775716;fill-opacity:1.0;fill:url(#linearGradient29095)"
           id="path13735" />
        <path
           d="m 424.97939,441.06634 v -18.58616 q 0,-0.49645 -0.37234,-0.83777 -0.34131,-0.37234 -0.83777,-0.37234 h -14.89375 v -2.57538 h 14.89375 q 1.55143,0 2.63743,1.11703 1.11703,1.086 1.11703,2.66846 v 18.58616 z"
           style="font-family:Orbitron;-inkscape-font-specification:'Orbitron, Normal';stroke-width:0.775716;fill-opacity:1.0;fill:url(#linearGradient29095)"
           id="path13737" />
        <path
           d="m 479.2774,440.7114 v -18.58616 q 0,-0.49645 -0.37234,-0.83777 -0.34132,-0.37234 -0.83777,-0.37234 h -14.89375 v -2.57538 h 14.89375 q 1.55143,0 2.63743,1.11703 1.11703,1.086 1.11703,2.66846 v 18.58616 z"
           style="font-family:Orbitron;-inkscape-font-specification:'Orbitron, Normal';stroke-width:0.775716;fill-opacity:1.0;fill:url(#linearGradient29095)"
           id="path13739" />
      </g>
    </g>
  </g>
  <g
     inkscape:groupmode="layer"
     id="layer3"
     inkscape:label="Layer 3">
    <path
       id="path45056"
       style="fill:url(#linearGradient47442);fill-opacity:1;stroke:none;stroke-width:0.0278525"
       inkscape:transform-center-x="8.621591"
       inkscape:transform-center-y="8.13031"
       d="m 248.74294,173.91794 a 76.052574,76.052574 0 0 0 13.58123,-5.97199 l -0.86851,-15.45696 a 62.441374,62.441374 0 0 0 15.10396,-15.30472 l 15.53473,0.71388 a 76.052574,76.052574 0 0 0 6.35308,-15.54333 l -11.61882,-10.38248 a 62.441374,62.441374 0 0 0 -0.10477,-21.446741 l 11.48404,-10.474996 a 76.052574,76.052574 0 0 0 -6.51454,-15.497416 l -15.50968,0.87143 a 62.441374,62.441374 0 0 0 -15.254,-15.061865 l 0.71589,-15.579736 A 76.052574,76.052574 0 0 0 246.10207,28.4302 l -10.4003,11.638794 a 62.441374,62.441374 0 0 0 -21.42302,0.09054 l -10.48053,-11.49013 a 76.052574,76.052574 0 0 0 -15.49743,6.514534 l 0.87008,15.483993 a 62.441374,62.441374 0 0 0 -4.71718,3.747727 102.08399,83.028313 71.520871 0 1 5.75273,4.373291 55.055916,57.575607 71.520871 0 1 6.38184,-4.309417 55.055916,57.575607 71.520871 0 1 78.32783,18.129562 55.055916,57.575607 71.520871 0 1 -20.8972,76.094136 l -0.0188,0.0112 a 55.055916,57.575607 71.520871 0 1 -11.76153,5.26511 55.055916,57.575607 71.520871 0 1 -9.52853,2.2479 102.08399,83.028313 71.520871 0 1 -0.57192,7.40002 62.441374,62.441374 0 0 0 4.24926,-0.61247 l 10.43974,11.44563 a 76.052574,76.052574 0 0 0 1.9162,-0.54255 z" />
  </g>
</svg>
